<svg xmlns="http://www.w3.org/2000/svg" width="400" height="400" id="education-certificate">
  <path fill="#CCE9FF" d="M315.47 359.727H84.53c-6.713 0-12.155-5.441-12.155-12.154V31.547c0-6.713 5.442-12.154 12.155-12.154h230.94c6.712 0 12.155 5.441 12.155 12.154v316.025c0 6.711-5.442 12.155-12.155 12.155z"></path>
  <path fill="#F7F7F7" d="M254.696 116.631H145.304a6.078 6.078 0 1 1 0-12.154h109.393a6.078 6.078 0 0 1 6.078 6.076 6.08 6.08 0 0 1-6.079 6.078z"></path>
  <path fill="#D3D3D3" d="M130.109 165.248h-12.155a6.077 6.077 0 0 1-6.077-6.076 6.079 6.079 0 0 1 6.077-6.078h12.155a6.079 6.079 0 0 1 6.077 6.078 6.076 6.076 0 0 1-6.077 6.076z" opacity=".97"></path>
  <path fill="#F7F7F7" d="M288.124 159.176a6.018 6.018 0 0 1-1.78 4.291 6.05 6.05 0 0 1-4.301 1.779H154.416a6.071 6.071 0 0 1-6.071-6.07c0-1.684.679-3.199 1.78-4.301a6.029 6.029 0 0 1 4.291-1.781h127.627a6.082 6.082 0 0 1 6.081 6.082z" opacity=".97"></path>
  <path fill="#D3D3D3" d="M130.109 189.559h-12.155a6.078 6.078 0 0 1 0-12.154h12.155a6.078 6.078 0 0 1 6.077 6.078 6.076 6.076 0 0 1-6.077 6.076z" opacity=".97"></path>
  <path fill="#F7F7F7" d="M288.124 183.479a6.051 6.051 0 0 1-1.78 4.301 6.052 6.052 0 0 1-4.301 1.781H154.416a6.075 6.075 0 0 1-6.071-6.082c0-1.682.679-3.197 1.78-4.291a6.027 6.027 0 0 1 4.291-1.779h127.627a6.073 6.073 0 0 1 6.081 6.07z" opacity=".97"></path>
  <path fill="#D3D3D3" d="M130.109 213.869h-12.155a6.08 6.08 0 0 1 0-12.156h12.155a6.08 6.08 0 0 1 6.077 6.08 6.077 6.077 0 0 1-6.077 6.076z" opacity=".97"></path>
  <path fill="#F7F7F7" d="M288.124 207.793a6.064 6.064 0 0 1-1.78 4.299 6.052 6.052 0 0 1-4.301 1.781H154.416a6.073 6.073 0 0 1-6.071-6.08c0-1.674.679-3.199 1.78-4.301a6.027 6.027 0 0 1 4.291-1.779h127.627a6.081 6.081 0 0 1 6.081 6.08z" opacity=".97"></path>
  <path fill="#0B4870" d="M160.497 268.564h-42.541a6.078 6.078 0 0 1-6.078-6.076 6.078 6.078 0 0 1 6.078-6.078h42.541a6.078 6.078 0 1 1 0 12.154zm-18.233 24.311h-24.309a6.078 6.078 0 1 1 0-12.154h24.309a6.078 6.078 0 1 1 0 12.154z"></path>
  <path fill="#F7F7F7" d="M236.464 92.32h-72.929a6.078 6.078 0 0 1 0-12.154h72.929a6.078 6.078 0 0 1 6.077 6.078 6.076 6.076 0 0 1-6.077 6.076zM236.464 65.406h-72.929a6.078 6.078 0 0 1 0-12.154h72.929a6.078 6.078 0 0 1 6.077 6.078 6.076 6.076 0 0 1-6.077 6.076z"></path>
  <g fill="#FFBE55" opacity=".9">
    <path d="m303.342 358.004-16.158 3.02-3.428 16.078c-.737 3.457-5.029 4.695-7.496 2.166l-46.847-48.051 29.438-28.701 46.848 48.051c2.466 2.529 1.116 6.787-2.357 7.437z"></path>
    <path d="m179.384 350.566 46.848-48.051 29.439 28.701-46.848 48.051c-2.467 2.529-6.759 1.291-7.496-2.166l-3.428-16.078-16.158-3.02c-3.473-.649-4.823-4.907-2.357-7.437z"></path>
  </g>
  <path fill="#2A94F4" d="M301.228 296.582a3.506 3.506 0 0 1-1.188 2.629l-11.134 9.793 4.747 14.051a3.502 3.502 0 0 1-2.631 4.553l-14.537 2.918-2.915 14.537a3.503 3.503 0 0 1-4.557 2.627l-14.047-4.744-9.793 11.133a3.504 3.504 0 0 1-5.259 0l-9.794-11.133-14.046 4.744a3.47 3.47 0 0 1-2.873-.283 3.507 3.507 0 0 1-1.684-2.344l-2.916-14.537-14.537-2.918a3.495 3.495 0 0 1-2.343-1.684 3.487 3.487 0 0 1-.286-2.869l4.743-14.051-11.131-9.793a3.5 3.5 0 0 1 0-5.26l11.131-9.795-4.743-14.049a3.487 3.487 0 0 1 .286-2.869 3.516 3.516 0 0 1 2.343-1.686l14.537-2.914 2.916-14.537a3.513 3.513 0 0 1 3.436-2.817c.376 0 .755.064 1.121.186l14.046 4.744 9.794-11.131a3.506 3.506 0 0 1 5.259 0l9.793 11.131 14.047-4.744a3.57 3.57 0 0 1 1.121-.186 3.508 3.508 0 0 1 3.436 2.817l2.915 14.537 14.537 2.914a3.518 3.518 0 0 1 2.345 1.686c.502.871.608 1.918.286 2.869l-4.747 14.049 11.134 9.795a3.504 3.504 0 0 1 1.188 2.631z"></path>
  <circle cx="242.541" cy="296.581" r="36.05" fill="#FFBE55"></circle>
</svg>
